<?xml version="1.0" encoding="utf-8"?>
<!-- Generator: Adobe Illustrator 16.0.4, SVG Export Plug-In . SVG Version: 6.00 Build 0)  -->
<!DOCTYPE svg PUBLIC "-//W3C//DTD SVG 1.1//EN" "http://www.w3.org/Graphics/SVG/1.1/DTD/svg11.dtd">
<svg version="1.1" xmlns="http://www.w3.org/2000/svg" xmlns:xlink="http://www.w3.org/1999/xlink" x="0px" y="0px" width="800px"
	 height="600px" viewBox="0 0 800 600" enable-background="new 0 0 800 600" xml:space="preserve">
<g id="Layer_1" display="none">
	
		<rect x="-3" y="-3.833" display="inline" fill="#E7222E" stroke="#000000" stroke-miterlimit="10" width="810.833" height="624.167"/>
</g>
<g id="Layer_2">
	<circle fill="none" stroke="#376AB0" stroke-width="2" stroke-miterlimit="10" cx="28.885" cy="306.431" r="6.914"/>
	<circle fill="none" stroke="#376AB0" stroke-width="2" stroke-miterlimit="10" cx="41.357" cy="322.609" r="6.914"/>
	<circle fill="none" stroke="#376AB0" stroke-width="2" stroke-miterlimit="10" cx="53.829" cy="338.787" r="6.914"/>
	<circle fill="none" stroke="#376AB0" stroke-width="2" stroke-miterlimit="10" cx="66.302" cy="354.965" r="6.913"/>
	<circle fill="none" stroke="#376AB0" stroke-width="2" stroke-miterlimit="10" cx="78.775" cy="371.145" r="6.914"/>
	<circle fill="none" stroke="#376AB0" stroke-width="2" stroke-miterlimit="10" cx="91.246" cy="387.323" r="6.914"/>
	<circle fill="none" stroke="#376AB0" stroke-width="2" stroke-miterlimit="10" cx="103.719" cy="403.5" r="6.914"/>
	<circle fill="none" stroke="#376AB0" stroke-width="2" stroke-miterlimit="10" cx="116.191" cy="419.679" r="6.915"/>
	<circle fill="none" stroke="#376AB0" stroke-width="2" stroke-miterlimit="10" cx="128.663" cy="435.856" r="6.913"/>
	<path fill="none" stroke="#376AB0" stroke-width="2" stroke-miterlimit="10" d="M146.612,447.816
		c2.33,3.021,1.768,7.364-1.256,9.692c-3.023,2.334-7.365,1.771-9.696-1.253c-2.331-3.023-1.771-7.364,1.253-9.696
		C139.938,444.228,144.28,444.791,146.612,447.816z"/>
	<path fill="none" stroke="#376AB0" stroke-width="2" stroke-miterlimit="10" d="M159.082,463.993
		c2.331,3.022,1.77,7.365-1.253,9.695c-3.024,2.332-7.366,1.769-9.697-1.255c-2.332-3.024-1.77-7.366,1.254-9.694
		C152.409,460.405,156.751,460.968,159.082,463.993z"/>
	<circle fill="none" stroke="#376AB0" stroke-width="2" stroke-miterlimit="10" cx="40.786" cy="558.821" r="6.915"/>
	<circle fill="none" stroke="#376AB0" stroke-width="2" stroke-miterlimit="10" cx="56.964" cy="546.35" r="6.915"/>
	<circle fill="none" stroke="#376AB0" stroke-width="2" stroke-miterlimit="10" cx="73.142" cy="533.878" r="6.915"/>
	<circle fill="none" stroke="#376AB0" stroke-width="2" stroke-miterlimit="10" cx="89.321" cy="521.405" r="6.913"/>
	<circle fill="none" stroke="#376AB0" stroke-width="2" stroke-miterlimit="10" cx="105.499" cy="508.934" r="6.914"/>
	<circle fill="none" stroke="#376AB0" stroke-width="2" stroke-miterlimit="10" cx="121.678" cy="496.461" r="6.914"/>
	<circle fill="none" stroke="#376AB0" stroke-width="2" stroke-miterlimit="10" cx="137.855" cy="483.989" r="6.914"/>
	<path fill="none" stroke="#376AB0" stroke-width="2" stroke-miterlimit="10" d="M371.91,19.487
		c2.479,3.215,1.879,7.831-1.332,10.309c-3.219,2.478-7.834,1.882-10.312-1.333c-2.477-3.215-1.881-7.831,1.336-10.31
		C364.814,15.674,369.432,16.272,371.91,19.487z"/>
	<circle fill="none" stroke="#376AB0" stroke-width="2" stroke-miterlimit="10" cx="379.348" cy="41.174" r="7.35"/>
	<path fill="none" stroke="#376AB0" stroke-width="2" stroke-miterlimit="10" d="M398.428,53.885
		c2.479,3.215,1.879,7.83-1.332,10.308c-3.217,2.478-7.834,1.882-10.312-1.333c-2.477-3.215-1.879-7.831,1.336-10.308
		C391.334,50.073,395.949,50.67,398.428,53.885z"/>
	<circle fill="none" stroke="#376AB0" stroke-width="2" stroke-miterlimit="10" cx="405.865" cy="75.572" r="7.351"/>
	<circle fill="none" stroke="#376AB0" stroke-width="2" stroke-miterlimit="10" cx="2.424" cy="185.994" r="7.351"/>
	<circle fill="none" stroke="#376AB0" stroke-width="2" stroke-miterlimit="10" cx="15.684" cy="203.193" r="7.35"/>
	<circle fill="none" stroke="#376AB0" stroke-width="2" stroke-miterlimit="10" cx="28.941" cy="220.392" r="7.35"/>
	<circle fill="none" stroke="#376AB0" stroke-width="2" stroke-miterlimit="10" cx="12.196" cy="237.162" r="7.349"/>
	<circle fill="none" stroke="#376AB0" stroke-width="2" stroke-miterlimit="10" cx="64.589" cy="450.063" r="25.064"/>
	<path fill="none" stroke="#376AB0" stroke-width="2" stroke-miterlimit="10" d="M84.945,274.407
		c0,14.716-11.929,26.647-26.645,26.647c-14.714,0-26.644-11.932-26.644-26.647c0-14.714,11.93-26.645,26.644-26.645
		C73.016,247.762,84.945,259.693,84.945,274.407z"/>
	<circle fill="none" stroke="#376AB0" stroke-width="2" stroke-miterlimit="10" cx="316.522" cy="191.91" r="26.646"/>
	<circle fill="none" stroke="#376AB0" stroke-width="2" stroke-miterlimit="10" cx="260.252" cy="101.453" r="7.35"/>
	<path fill="none" stroke="#376AB0" stroke-width="2" stroke-miterlimit="10" d="M247.539,120.536
		c-3.214,2.478-7.829,1.881-10.307-1.334c-2.477-3.214-1.881-7.832,1.334-10.31c3.214-2.479,7.827-1.88,10.306,1.333
		C251.353,113.442,250.754,118.057,247.539,120.536z"/>
	<path fill="none" stroke="#376AB0" stroke-width="2" stroke-miterlimit="10" d="M230.341,133.796
		c-3.215,2.477-7.829,1.881-10.311-1.335c-2.475-3.215-1.88-7.831,1.336-10.308c3.213-2.479,7.831-1.881,10.309,1.333
		S233.554,131.317,230.341,133.796z"/>
	<circle fill="none" stroke="#376AB0" stroke-width="2" stroke-miterlimit="10" cx="208.653" cy="141.234" r="7.351"/>
	<circle fill="none" stroke="#376AB0" stroke-width="2" stroke-miterlimit="10" cx="191.454" cy="154.492" r="7.351"/>
	<circle fill="none" stroke="#376AB0" stroke-width="2" stroke-miterlimit="10" cx="174.256" cy="167.75" r="7.35"/>
	<circle fill="none" stroke="#376AB0" stroke-width="2" stroke-miterlimit="10" cx="157.057" cy="181.01" r="7.351"/>
	<path fill="none" stroke="#376AB0" stroke-width="2" stroke-miterlimit="10" d="M144.345,200.09
		c-3.215,2.479-7.83,1.881-10.31-1.333c-2.475-3.214-1.879-7.833,1.336-10.31c3.213-2.478,7.831-1.879,10.307,1.334
		C148.159,192.998,147.559,197.611,144.345,200.09z"/>
	<path fill="none" stroke="#376AB0" stroke-width="2" stroke-miterlimit="10" d="M127.146,213.35
		c-3.214,2.479-7.827,1.88-10.308-1.333c-2.478-3.214-1.882-7.832,1.335-10.309c3.212-2.479,7.829-1.881,10.306,1.332
		C130.958,206.255,130.36,210.873,127.146,213.35z"/>
	<circle fill="none" stroke="#376AB0" stroke-width="2" stroke-miterlimit="10" cx="105.459" cy="220.788" r="7.349"/>
	<circle fill="none" stroke="#376AB0" stroke-width="2" stroke-miterlimit="10" cx="348.518" cy="32.582" r="7.351"/>
	<path fill="none" stroke="#376AB0" stroke-width="2" stroke-miterlimit="10" d="M335.805,51.664
		c-3.215,2.479-7.83,1.882-10.309-1.333s-1.883-7.832,1.334-10.31c3.215-2.479,7.832-1.881,10.307,1.332
		C339.617,44.57,339.021,49.185,335.805,51.664z"/>
	<path fill="none" stroke="#376AB0" stroke-width="2" stroke-miterlimit="10" d="M318.605,64.923
		c-3.215,2.478-7.83,1.881-10.311-1.333c-2.475-3.214-1.881-7.832,1.336-10.31c3.213-2.479,7.83-1.881,10.309,1.333
		C322.418,57.83,321.818,62.445,318.605,64.923z"/>
	<path fill="none" stroke="#376AB0" stroke-width="2" stroke-miterlimit="10" d="M301.408,78.183
		c-3.217,2.479-7.832,1.881-10.311-1.333c-2.477-3.216-1.883-7.832,1.336-10.31c3.213-2.478,7.83-1.881,10.305,1.333
		C305.217,71.087,304.621,75.705,301.408,78.183z"/>
	<circle fill="none" stroke="#376AB0" stroke-width="2" stroke-miterlimit="10" cx="279.719" cy="85.621" r="7.349"/>
	<path fill="none" stroke="#376AB0" stroke-width="2" stroke-miterlimit="10" d="M92.747,239.868
		c-3.213,2.478-7.828,1.881-10.307-1.333s-1.88-7.832,1.334-10.309c3.213-2.479,7.829-1.882,10.308,1.334
		C96.558,232.771,95.962,237.39,92.747,239.868z"/>
	<circle fill="none" stroke="#376AB0" stroke-width="2" stroke-miterlimit="10" cx="5.194" cy="131.306" r="7.351"/>
	<circle fill="none" stroke="#376AB0" stroke-width="2" stroke-miterlimit="10" cx="18.454" cy="148.505" r="7.35"/>
	<circle fill="none" stroke="#376AB0" stroke-width="2" stroke-miterlimit="10" cx="31.714" cy="165.704" r="7.35"/>
	<path fill="none" stroke="#376AB0" stroke-width="2" stroke-miterlimit="10" d="M50.792,178.415c2.48,3.215,1.882,7.83-1.332,10.31
		c-3.216,2.478-7.831,1.88-10.312-1.334c-2.476-3.215-1.88-7.832,1.334-10.308C43.698,174.604,48.316,175.203,50.792,178.415z"/>
	<circle fill="none" stroke="#376AB0" stroke-width="2" stroke-miterlimit="10" cx="58.231" cy="200.103" r="7.35"/>
	<path fill="none" stroke="#376AB0" stroke-width="2" stroke-miterlimit="10" d="M77.312,212.814
		c2.479,3.214,1.881,7.829-1.334,10.307c-3.213,2.48-7.831,1.883-10.309-1.335c-2.479-3.212-1.881-7.828,1.335-10.307
		C70.216,209.003,74.833,209.597,77.312,212.814z"/>
	<circle fill="none" stroke="#376AB0" stroke-width="2" stroke-miterlimit="10" cx="174.741" cy="209.188" r="7.351"/>
	<circle fill="none" stroke="#376AB0" stroke-width="2" stroke-miterlimit="10" cx="188.002" cy="226.388" r="7.349"/>
	<path fill="none" stroke="#376AB0" stroke-width="2" stroke-miterlimit="10" d="M207.083,239.098
		c2.475,3.215,1.881,7.832-1.334,10.311c-3.214,2.477-7.832,1.879-10.309-1.336c-2.48-3.214-1.881-7.83,1.333-10.307
		C199.987,235.286,204.602,235.883,207.083,239.098z"/>
	<path fill="none" stroke="#376AB0" stroke-width="2" stroke-miterlimit="10" d="M220.339,256.297
		c2.48,3.217,1.881,7.833-1.331,10.309c-3.215,2.479-7.831,1.883-10.312-1.333c-2.475-3.215-1.879-7.831,1.336-10.309
		C213.246,252.486,217.863,253.082,220.339,256.297z"/>
	<path fill="none" stroke="#376AB0" stroke-width="2" stroke-miterlimit="10" d="M233.602,273.496
		c2.477,3.216,1.881,7.832-1.334,10.311c-3.214,2.477-7.833,1.88-10.309-1.334c-2.48-3.214-1.881-7.831,1.333-10.307
		C226.506,269.684,231.122,270.282,233.602,273.496z"/>
	<path fill="none" stroke="#376AB0" stroke-width="2" stroke-miterlimit="10" d="M246.859,290.695
		c2.479,3.216,1.883,7.831-1.332,10.311c-3.214,2.479-7.833,1.88-10.312-1.336c-2.477-3.214-1.879-7.83,1.334-10.308
		C239.765,286.885,244.38,287.481,246.859,290.695z"/>
	<path fill="none" stroke="#376AB0" stroke-width="2" stroke-miterlimit="10" d="M260.118,307.895
		c2.48,3.216,1.885,7.83-1.332,10.311c-3.216,2.479-7.831,1.88-10.31-1.334c-2.479-3.216-1.881-7.831,1.332-10.31
		C253.026,304.083,257.641,304.681,260.118,307.895z"/>
	<path fill="none" stroke="#376AB0" stroke-width="2" stroke-miterlimit="10" d="M273.378,325.094
		c2.48,3.215,1.881,7.83-1.336,10.311c-3.212,2.479-7.827,1.882-10.306-1.334s-1.882-7.832,1.332-10.308
		C266.285,321.282,270.9,321.88,273.378,325.094z"/>
	<path fill="none" stroke="#376AB0" stroke-width="2" stroke-miterlimit="10" d="M128.322,278.062
		c2.477,3.214,1.881,7.829-1.333,10.308c-3.214,2.48-7.832,1.882-10.31-1.336c-2.478-3.214-1.881-7.827,1.335-10.306
		C121.227,274.252,125.843,274.848,128.322,278.062z"/>
	<path fill="none" stroke="#376AB0" stroke-width="2" stroke-miterlimit="10" d="M66.869,320.018
		c3.214-2.48,7.829-1.883,10.31,1.332c2.478,3.218,1.879,7.833-1.336,10.312c-3.215,2.477-7.83,1.879-10.307-1.334
		C63.059,327.111,63.655,322.496,66.869,320.018z"/>
	<path fill="none" stroke="#376AB0" stroke-width="2" stroke-miterlimit="10" d="M84.068,306.757
		c3.216-2.479,7.832-1.88,10.309,1.336c2.478,3.212,1.881,7.831-1.334,10.31c-3.214,2.477-7.83,1.879-10.309-1.335
		C80.256,313.853,80.854,309.237,84.068,306.757z"/>
	<path fill="none" stroke="#376AB0" stroke-width="2" stroke-miterlimit="10" d="M101.268,293.5
		c3.213-2.479,7.828-1.883,10.308,1.331c2.479,3.217,1.878,7.832-1.334,10.312c-3.214,2.475-7.83,1.879-10.31-1.336
		C97.456,300.592,98.052,295.975,101.268,293.5z"/>
	<circle fill="none" stroke="#376AB0" stroke-width="2" stroke-miterlimit="10" cx="153.896" cy="247.955" r="26.645"/>
	<circle fill="none" stroke="#376AB0" stroke-width="2" stroke-miterlimit="10" cx="258.639" cy="231.418" r="26.644"/>
	<circle fill="none" stroke="#376AB0" stroke-width="2" stroke-miterlimit="10" cx="153.834" cy="-6.586" r="7.35"/>
	<circle fill="none" stroke="#376AB0" stroke-width="2" stroke-miterlimit="10" cx="136.635" cy="6.674" r="7.35"/>
	<circle fill="none" stroke="#376AB0" stroke-width="2" stroke-miterlimit="10" cx="119.436" cy="19.933" r="7.35"/>
	<circle fill="none" stroke="#376AB0" stroke-width="2" stroke-miterlimit="10" cx="102.236" cy="33.193" r="7.35"/>
	<path fill="none" stroke="#376AB0" stroke-width="2" stroke-miterlimit="10" d="M89.525,52.274
		c-3.216,2.478-7.833,1.88-10.307-1.335c-2.482-3.214-1.884-7.83,1.33-10.307c3.217-2.478,7.832-1.882,10.311,1.333
		C93.336,45.178,92.74,49.795,89.525,52.274z"/>
	<path fill="none" stroke="#376AB0" stroke-width="2" stroke-miterlimit="10" d="M72.326,65.531
		c-3.215,2.479-7.831,1.883-10.308-1.333c-2.479-3.214-1.883-7.832,1.331-10.31c3.217-2.479,7.832-1.881,10.311,1.333
		C76.138,58.438,75.541,63.054,72.326,65.531z"/>
	<circle fill="none" stroke="#376AB0" stroke-width="2" stroke-miterlimit="10" cx="50.64" cy="72.97" r="7.351"/>
	<circle fill="none" stroke="#376AB0" stroke-width="2" stroke-miterlimit="10" cx="33.44" cy="86.229" r="7.35"/>
	<circle fill="none" stroke="#376AB0" stroke-width="2" stroke-miterlimit="10" cx="16.241" cy="99.489" r="7.35"/>
	<path fill="none" stroke="#376AB0" stroke-width="2" stroke-miterlimit="10" d="M212.692,297.956
		c-3.214,2.479-7.829,1.88-10.306-1.334c-2.48-3.216-1.881-7.83,1.331-10.311c3.214-2.476,7.831-1.88,10.311,1.336
		C216.504,290.861,215.907,295.478,212.692,297.956z"/>
	<path fill="none" stroke="#376AB0" stroke-width="2" stroke-miterlimit="10" d="M195.493,311.214
		c-3.214,2.479-7.83,1.881-10.308-1.335c-2.479-3.212-1.879-7.829,1.335-10.307c3.215-2.48,7.827-1.882,10.308,1.334
		C199.305,304.118,198.71,308.735,195.493,311.214z"/>
	<path fill="none" stroke="#376AB0" stroke-width="2" stroke-miterlimit="10" d="M276.149,270.407
		c2.477,3.215,1.883,7.833-1.335,10.311c-3.214,2.477-7.83,1.879-10.309-1.334c-2.479-3.216-1.88-7.833,1.332-10.312
		C269.055,266.596,273.67,267.193,276.149,270.407z"/>
	<path fill="none" stroke="#376AB0" stroke-width="2" stroke-miterlimit="10" d="M289.408,287.605
		c2.477,3.216,1.879,7.831-1.336,10.308c-3.211,2.479-7.83,1.883-10.308-1.331c-2.477-3.215-1.88-7.832,1.332-10.311
		C282.312,283.793,286.93,284.392,289.408,287.605z"/>
	<circle fill="none" stroke="#376AB0" stroke-width="2" stroke-miterlimit="10" cx="296.846" cy="309.292" r="7.35"/>
	<path fill="none" stroke="#376AB0" stroke-width="2" stroke-miterlimit="10" d="M315.926,322.004
		c2.479,3.216,1.881,7.831-1.336,10.308c-3.211,2.48-7.828,1.883-10.307-1.332c-2.477-3.216-1.881-7.831,1.336-10.31
		C308.832,318.193,313.447,318.79,315.926,322.004z"/>
	<path fill="none" stroke="#376AB0" stroke-width="2" stroke-miterlimit="10" d="M180.058,284.161
		c2.477,3.212,1.88,7.828-1.334,10.307c-3.214,2.479-7.832,1.882-10.31-1.334c-2.478-3.214-1.878-7.829,1.336-10.306
		C172.961,280.348,177.58,280.943,180.058,284.161z"/>
	<circle fill="none" stroke="#376AB0" stroke-width="2" stroke-miterlimit="10" cx="159.208" cy="433.374" r="7.35"/>
	<circle fill="none" stroke="#376AB0" stroke-width="2" stroke-miterlimit="10" cx="172.467" cy="450.573" r="7.35"/>
	<circle fill="none" stroke="#376AB0" stroke-width="2" stroke-miterlimit="10" cx="185.725" cy="467.771" r="7.351"/>
	<circle fill="none" stroke="#376AB0" stroke-width="2" stroke-miterlimit="10" cx="198.985" cy="484.971" r="7.351"/>
	<path fill="none" stroke="#376AB0" stroke-width="2" stroke-miterlimit="10" d="M218.067,497.683
		c2.478,3.216,1.88,7.831-1.335,10.309c-3.212,2.478-7.83,1.882-10.309-1.334c-2.478-3.214-1.88-7.829,1.333-10.308
		C210.972,493.871,215.589,494.469,218.067,497.683z"/>
	<circle fill="none" stroke="#376AB0" stroke-width="2" stroke-miterlimit="10" cx="225.504" cy="519.368" r="7.35"/>
	<path fill="none" stroke="#376AB0" stroke-width="2" stroke-miterlimit="10" d="M244.585,532.082
		c2.477,3.214,1.881,7.83-1.334,10.307c-3.214,2.479-7.831,1.883-10.309-1.332c-2.478-3.217-1.881-7.83,1.334-10.309
		C237.49,528.27,242.106,528.866,244.585,532.082z"/>
	<circle fill="none" stroke="#376AB0" stroke-width="2" stroke-miterlimit="10" cx="252.023" cy="553.767" r="7.349"/>
	<circle fill="none" stroke="#376AB0" stroke-width="2" stroke-miterlimit="10" cx="265.282" cy="570.966" r="7.351"/>
	<circle fill="none" stroke="#376AB0" stroke-width="2" stroke-miterlimit="10" cx="278.542" cy="588.166" r="7.35"/>
	<circle fill="none" stroke="#376AB0" stroke-width="2" stroke-miterlimit="10" cx="291.799" cy="605.365" r="7.35"/>
	<circle fill="none" stroke="#376AB0" stroke-width="2" stroke-miterlimit="10" cx="243.104" cy="455.603" r="26.645"/>
	<circle fill="none" stroke="#376AB0" stroke-width="2" stroke-miterlimit="10" cx="523.11" cy="486.426" r="7.35"/>
	<path fill="none" stroke="#376AB0" stroke-width="2" stroke-miterlimit="10" d="M510.396,505.508
		c-3.214,2.479-7.828,1.881-10.307-1.334c-2.477-3.213-1.882-7.831,1.334-10.309c3.214-2.479,7.827-1.881,10.306,1.332
		C514.211,498.414,513.612,503.029,510.396,505.508z"/>
	<path fill="none" stroke="#376AB0" stroke-width="2" stroke-miterlimit="10" d="M493.199,518.769
		c-3.215,2.477-7.828,1.881-10.311-1.335c-2.475-3.216-1.88-7.831,1.336-10.309c3.213-2.479,7.83-1.881,10.309,1.332
		C497.012,511.672,496.412,516.289,493.199,518.769z"/>
	<circle fill="none" stroke="#376AB0" stroke-width="2" stroke-miterlimit="10" cx="471.511" cy="526.207" r="7.35"/>
	<circle fill="none" stroke="#376AB0" stroke-width="2" stroke-miterlimit="10" cx="454.312" cy="539.465" r="7.351"/>
	<circle fill="none" stroke="#376AB0" stroke-width="2" stroke-miterlimit="10" cx="437.114" cy="552.723" r="7.35"/>
	<path fill="none" stroke="#376AB0" stroke-width="2" stroke-miterlimit="10" d="M424.403,571.804
		c-3.216,2.479-7.833,1.882-10.31-1.333c-2.478-3.217-1.882-7.832,1.332-10.309c3.218-2.479,7.833-1.882,10.309,1.332
		C428.214,564.711,427.617,569.326,424.403,571.804z"/>
	<path fill="none" stroke="#376AB0" stroke-width="2" stroke-miterlimit="10" d="M407.203,585.062
		c-3.215,2.48-7.83,1.881-10.311-1.332c-2.475-3.214-1.879-7.832,1.336-10.311c3.213-2.477,7.831-1.879,10.308,1.335
		C411.017,577.971,410.417,582.584,407.203,585.062z"/>
	<circle fill="none" stroke="#376AB0" stroke-width="2" stroke-miterlimit="10" cx="385.518" cy="592.501" r="7.349"/>
	<circle fill="none" stroke="#376AB0" stroke-width="2" stroke-miterlimit="10" cx="368.317" cy="605.761" r="7.349"/>
	<circle fill="none" stroke="#376AB0" stroke-width="2" stroke-miterlimit="10" cx="254.792" cy="499.08" r="7.351"/>
	<circle fill="none" stroke="#376AB0" stroke-width="2" stroke-miterlimit="10" cx="268.052" cy="516.278" r="7.351"/>
	<circle fill="none" stroke="#376AB0" stroke-width="2" stroke-miterlimit="10" cx="281.312" cy="533.478" r="7.35"/>
	<circle fill="none" stroke="#376AB0" stroke-width="2" stroke-miterlimit="10" cx="294.571" cy="550.677" r="7.35"/>
	<path fill="none" stroke="#376AB0" stroke-width="2" stroke-miterlimit="10" d="M313.65,563.388
		c2.479,3.216,1.882,7.829-1.332,10.31c-3.216,2.479-7.831,1.881-10.312-1.334c-2.476-3.215-1.88-7.832,1.335-10.309
		C306.557,559.576,311.174,560.176,313.65,563.388z"/>
	<circle fill="none" stroke="#376AB0" stroke-width="2" stroke-miterlimit="10" cx="321.089" cy="585.076" r="7.35"/>
	<circle fill="none" stroke="#376AB0" stroke-width="2" stroke-miterlimit="10" cx="334.348" cy="602.273" r="7.35"/>
	<circle fill="none" stroke="#376AB0" stroke-width="2" stroke-miterlimit="10" cx="437.599" cy="594.16" r="7.35"/>
	<circle fill="none" stroke="#376AB0" stroke-width="2" stroke-miterlimit="10" cx="450.859" cy="611.36" r="7.349"/>
	<circle fill="none" stroke="#376AB0" stroke-width="2" stroke-miterlimit="10" cx="416.692" cy="378.387" r="7.35"/>
	<circle fill="none" stroke="#376AB0" stroke-width="2" stroke-miterlimit="10" cx="399.493" cy="391.646" r="7.349"/>
	<circle fill="none" stroke="#376AB0" stroke-width="2" stroke-miterlimit="10" cx="382.293" cy="404.905" r="7.35"/>
	<circle fill="none" stroke="#376AB0" stroke-width="2" stroke-miterlimit="10" cx="365.094" cy="418.165" r="7.351"/>
	<path fill="none" stroke="#376AB0" stroke-width="2" stroke-miterlimit="10" d="M352.383,437.246
		c-3.216,2.479-7.832,1.881-10.307-1.335c-2.482-3.214-1.885-7.829,1.329-10.308c3.217-2.478,7.832-1.882,10.311,1.333
		C356.193,430.15,355.598,434.768,352.383,437.246z"/>
	<path fill="none" stroke="#376AB0" stroke-width="2" stroke-miterlimit="10" d="M335.184,450.504
		c-3.215,2.479-7.83,1.883-10.308-1.332c-2.479-3.215-1.884-7.832,1.331-10.311c3.217-2.479,7.832-1.881,10.311,1.334
		C338.996,443.411,338.398,448.026,335.184,450.504z"/>
	<circle fill="none" stroke="#376AB0" stroke-width="2" stroke-miterlimit="10" cx="313.498" cy="457.942" r="7.351"/>
	<circle fill="none" stroke="#376AB0" stroke-width="2" stroke-miterlimit="10" cx="296.298" cy="471.202" r="7.35"/>
	<circle fill="none" stroke="#376AB0" stroke-width="2" stroke-miterlimit="10" cx="279.099" cy="484.461" r="7.35"/>
	<circle fill="none" stroke="#376AB0" stroke-width="2" stroke-miterlimit="10" cx="552.599" cy="352.229" r="6.914"/>
	<circle fill="none" stroke="#376AB0" stroke-width="2" stroke-miterlimit="10" cx="565.071" cy="368.408" r="6.913"/>
	<circle fill="none" stroke="#376AB0" stroke-width="2" stroke-miterlimit="10" cx="577.544" cy="384.585" r="6.914"/>
	<path fill="none" stroke="#376AB0" stroke-width="2" stroke-miterlimit="10" d="M595.492,396.543
		c2.33,3.023,1.77,7.367-1.254,9.697c-3.024,2.332-7.367,1.768-9.697-1.258c-2.332-3.021-1.771-7.363,1.253-9.693
		C588.818,392.957,593.161,393.52,595.492,396.543z"/>
	<circle fill="none" stroke="#376AB0" stroke-width="2" stroke-miterlimit="10" cx="602.489" cy="416.943" r="6.913"/>
	<circle fill="none" stroke="#376AB0" stroke-width="2" stroke-miterlimit="10" cx="614.96" cy="433.122" r="6.914"/>
	<circle fill="none" stroke="#376AB0" stroke-width="2" stroke-miterlimit="10" cx="627.433" cy="449.298" r="6.914"/>
	<circle fill="none" stroke="#376AB0" stroke-width="2" stroke-miterlimit="10" cx="639.906" cy="465.477" r="6.915"/>
	<path fill="none" stroke="#376AB0" stroke-width="2" stroke-miterlimit="10" d="M657.854,477.434
		c2.33,3.025,1.77,7.367-1.254,9.697c-3.024,2.33-7.367,1.77-9.697-1.256c-2.332-3.021-1.77-7.365,1.252-9.695
		C651.18,473.848,655.521,474.41,657.854,477.434z"/>
	<path fill="none" stroke="#376AB0" stroke-width="2" stroke-miterlimit="10" d="M670.326,493.615
		c2.33,3.021,1.769,7.363-1.256,9.691c-3.022,2.334-7.365,1.771-9.695-1.252c-2.332-3.023-1.771-7.365,1.252-9.697
		C663.652,490.025,667.994,490.59,670.326,493.615z"/>
	<path fill="none" stroke="#376AB0" stroke-width="2" stroke-miterlimit="10" d="M682.797,509.791
		c2.33,3.023,1.77,7.365-1.254,9.695c-3.023,2.332-7.365,1.77-9.697-1.254c-2.331-3.025-1.77-7.367,1.254-9.695
		C676.123,506.203,680.466,506.766,682.797,509.791z"/>
	<circle fill="none" stroke="#376AB0" stroke-width="2" stroke-miterlimit="10" cx="564.5" cy="604.619" r="6.915"/>
	<circle fill="none" stroke="#376AB0" stroke-width="2" stroke-miterlimit="10" cx="580.678" cy="592.148" r="6.915"/>
	<path fill="none" stroke="#376AB0" stroke-width="2" stroke-miterlimit="10" d="M592.635,574.199
		c3.024-2.33,7.367-1.77,9.697,1.256c2.331,3.023,1.77,7.365-1.254,9.697c-3.023,2.33-7.365,1.768-9.697-1.254
		C589.05,580.871,589.611,576.531,592.635,574.199z"/>
	<circle fill="none" stroke="#376AB0" stroke-width="2" stroke-miterlimit="10" cx="613.035" cy="567.204" r="6.913"/>
	<circle fill="none" stroke="#376AB0" stroke-width="2" stroke-miterlimit="10" cx="629.214" cy="554.731" r="6.914"/>
	<circle fill="none" stroke="#376AB0" stroke-width="2" stroke-miterlimit="10" cx="645.393" cy="542.259" r="6.913"/>
	<path fill="none" stroke="#376AB0" stroke-width="2" stroke-miterlimit="10" d="M657.348,524.312
		c3.025-2.332,7.365-1.773,9.696,1.252c2.333,3.027,1.771,7.365-1.253,9.699c-3.024,2.33-7.365,1.77-9.697-1.256
		C653.764,530.984,654.323,526.643,657.348,524.312z"/>
	<circle fill="none" stroke="#376AB0" stroke-width="2" stroke-miterlimit="10" cx="420.063" cy="94.199" r="7.35"/>
	<circle fill="none" stroke="#376AB0" stroke-width="2" stroke-miterlimit="10" cx="433.323" cy="111.399" r="7.35"/>
	<circle fill="none" stroke="#376AB0" stroke-width="2" stroke-miterlimit="10" cx="446.582" cy="128.597" r="7.351"/>
	<circle fill="none" stroke="#376AB0" stroke-width="2" stroke-miterlimit="10" cx="459.841" cy="145.796" r="7.351"/>
	<path fill="none" stroke="#376AB0" stroke-width="2" stroke-miterlimit="10" d="M1042.143,119.684
		c2.479,3.215,1.879,7.83-1.332,10.308c-3.217,2.478-7.834,1.882-10.312-1.333c-2.477-3.215-1.879-7.831,1.336-10.308
		C1035.049,115.871,1039.664,116.469,1042.143,119.684z"/>
	<circle fill="none" stroke="#376AB0" stroke-width="2" stroke-miterlimit="10" cx="1049.58" cy="141.371" r="7.351"/>
	<path fill="none" stroke="#376AB0" stroke-width="2" stroke-miterlimit="10" d="M478.924,158.508
		c2.478,3.215,1.88,7.831-1.336,10.309c-3.212,2.478-7.83,1.881-10.309-1.334c-2.478-3.214-1.881-7.83,1.334-10.307
		C471.828,154.697,476.445,155.294,478.924,158.508z"/>
	<circle fill="none" stroke="#376AB0" stroke-width="2" stroke-miterlimit="10" cx="486.36" cy="180.194" r="7.35"/>
	<path fill="none" stroke="#376AB0" stroke-width="2" stroke-miterlimit="10" d="M505.441,192.908
		c2.477,3.214,1.881,7.83-1.334,10.307c-3.215,2.479-7.831,1.883-10.309-1.332c-2.479-3.217-1.882-7.831,1.334-10.31
		C498.346,189.095,502.963,189.692,505.441,192.908z"/>
	<circle fill="none" stroke="#376AB0" stroke-width="2" stroke-miterlimit="10" cx="512.879" cy="214.593" r="7.35"/>
	<circle fill="none" stroke="#376AB0" stroke-width="2" stroke-miterlimit="10" cx="526.139" cy="231.792" r="7.351"/>
	<circle fill="none" stroke="#376AB0" stroke-width="2" stroke-miterlimit="10" cx="539.398" cy="248.992" r="7.351"/>
	<path fill="none" stroke="#376AB0" stroke-width="2" stroke-miterlimit="10" d="M558.477,261.704
		c2.48,3.214,1.881,7.829-1.332,10.307c-3.213,2.479-7.83,1.881-10.311-1.333c-2.477-3.216-1.879-7.831,1.336-10.309
		C551.383,257.891,556,258.488,558.477,261.704z"/>
	<circle fill="none" stroke="#376AB0" stroke-width="2" stroke-miterlimit="10" cx="432.716" cy="362.516" r="7.351"/>
	<circle fill="none" stroke="#376AB0" stroke-width="2" stroke-miterlimit="10" cx="449.915" cy="349.256" r="7.349"/>
	<circle fill="none" stroke="#376AB0" stroke-width="2" stroke-miterlimit="10" cx="467.114" cy="335.997" r="7.35"/>
	<circle fill="none" stroke="#376AB0" stroke-width="2" stroke-miterlimit="10" cx="484.313" cy="322.737" r="7.35"/>
	<circle fill="none" stroke="#376AB0" stroke-width="2" stroke-miterlimit="10" cx="501.513" cy="309.48" r="7.351"/>
	<circle fill="none" stroke="#376AB0" stroke-width="2" stroke-miterlimit="10" cx="518.712" cy="296.22" r="7.35"/>
	<circle fill="none" stroke="#376AB0" stroke-width="2" stroke-miterlimit="10" cx="535.91" cy="282.961" r="7.349"/>
	<circle fill="none" stroke="#376AB0" stroke-width="2" stroke-miterlimit="10" cx="588.304" cy="495.861" r="25.063"/>
	<path fill="none" stroke="#376AB0" stroke-width="2" stroke-miterlimit="10" d="M608.66,320.205
		c0,14.717-11.93,26.648-26.646,26.648c-14.714,0-26.644-11.932-26.644-26.648c0-14.713,11.93-26.645,26.644-26.645
		C596.73,293.561,608.66,305.492,608.66,320.205z"/>
	<circle fill="none" stroke="#376AB0" stroke-width="2" stroke-miterlimit="10" cx="503.96" cy="116.428" r="26.645"/>
	<circle fill="none" stroke="#376AB0" stroke-width="2" stroke-miterlimit="10" cx="783.967" cy="147.252" r="7.35"/>
	<path fill="none" stroke="#376AB0" stroke-width="2" stroke-miterlimit="10" d="M771.253,166.334
		c-3.214,2.478-7.829,1.881-10.308-1.334c-2.477-3.214-1.881-7.832,1.335-10.31c3.214-2.479,7.827-1.88,10.306,1.333
		C775.067,159.24,774.469,163.855,771.253,166.334z"/>
	<path fill="none" stroke="#376AB0" stroke-width="2" stroke-miterlimit="10" d="M754.056,179.594
		c-3.216,2.477-7.829,1.881-10.311-1.335c-2.476-3.215-1.88-7.831,1.336-10.308c3.214-2.479,7.831-1.881,10.31,1.333
		S757.268,177.115,754.056,179.594z"/>
	<circle fill="none" stroke="#376AB0" stroke-width="2" stroke-miterlimit="10" cx="732.368" cy="187.032" r="7.351"/>
	<path fill="none" stroke="#376AB0" stroke-width="2" stroke-miterlimit="10" d="M719.656,206.112
		c-3.215,2.478-7.832,1.881-10.308-1.334c-2.479-3.217-1.88-7.831,1.331-10.31c3.217-2.477,7.83-1.881,10.311,1.334
		C723.469,199.016,722.873,203.633,719.656,206.112z"/>
	<circle fill="none" stroke="#376AB0" stroke-width="2" stroke-miterlimit="10" cx="697.97" cy="213.548" r="7.35"/>
	<path fill="none" stroke="#376AB0" stroke-width="2" stroke-miterlimit="10" d="M685.26,232.629
		c-3.216,2.479-7.832,1.882-10.311-1.333c-2.477-3.216-1.881-7.832,1.334-10.309c3.217-2.478,7.832-1.881,10.307,1.333
		C689.07,225.537,688.475,230.152,685.26,232.629z"/>
	<path fill="none" stroke="#376AB0" stroke-width="2" stroke-miterlimit="10" d="M668.06,245.889
		c-3.216,2.479-7.83,1.881-10.31-1.333c-2.476-3.214-1.88-7.833,1.336-10.31c3.213-2.478,7.83-1.879,10.307,1.334
		C671.873,238.796,671.273,243.41,668.06,245.889z"/>
	<path fill="none" stroke="#376AB0" stroke-width="2" stroke-miterlimit="10" d="M650.859,259.148
		c-3.213,2.479-7.826,1.88-10.307-1.333c-2.479-3.214-1.883-7.832,1.335-10.309c3.212-2.479,7.829-1.881,10.306,1.332
		C654.672,252.053,654.074,256.671,650.859,259.148z"/>
	<circle fill="none" stroke="#376AB0" stroke-width="2" stroke-miterlimit="10" cx="629.173" cy="266.587" r="7.349"/>
	<circle fill="none" stroke="#376AB0" stroke-width="2" stroke-miterlimit="10" cx="803.433" cy="131.42" r="7.35"/>
	<path fill="none" stroke="#376AB0" stroke-width="2" stroke-miterlimit="10" d="M616.461,285.666
		c-3.213,2.479-7.828,1.881-10.307-1.333c-2.479-3.214-1.881-7.832,1.334-10.309c3.213-2.479,7.829-1.882,10.308,1.334
		C620.272,278.57,619.677,283.188,616.461,285.666z"/>
	<circle fill="none" stroke="#376AB0" stroke-width="2" stroke-miterlimit="10" cx="515.649" cy="159.906" r="7.351"/>
	<circle fill="none" stroke="#376AB0" stroke-width="2" stroke-miterlimit="10" cx="528.909" cy="177.104" r="7.351"/>
	<circle fill="none" stroke="#376AB0" stroke-width="2" stroke-miterlimit="10" cx="542.169" cy="194.303" r="7.35"/>
	<path fill="none" stroke="#376AB0" stroke-width="2" stroke-miterlimit="10" d="M561.249,207.016
		c2.478,3.214,1.88,7.831-1.335,10.309c-3.213,2.478-7.83,1.879-10.307-1.335c-2.48-3.214-1.883-7.83,1.331-10.309
		C554.153,203.204,558.768,203.801,561.249,207.016z"/>
	<path fill="none" stroke="#376AB0" stroke-width="2" stroke-miterlimit="10" d="M574.506,224.213
		c2.48,3.215,1.883,7.83-1.331,10.31c-3.216,2.478-7.831,1.88-10.312-1.334c-2.477-3.215-1.881-7.832,1.334-10.308
		C567.412,220.402,572.03,221.001,574.506,224.213z"/>
	<circle fill="none" stroke="#376AB0" stroke-width="2" stroke-miterlimit="10" cx="581.946" cy="245.902" r="7.35"/>
	<path fill="none" stroke="#376AB0" stroke-width="2" stroke-miterlimit="10" d="M601.025,258.613
		c2.479,3.214,1.881,7.829-1.334,10.307c-3.213,2.48-7.83,1.883-10.309-1.335c-2.479-3.212-1.881-7.828,1.335-10.307
		C593.931,254.802,598.547,255.395,601.025,258.613z"/>
	<circle fill="none" stroke="#376AB0" stroke-width="2" stroke-miterlimit="10" cx="698.456" cy="254.986" r="7.351"/>
	<circle fill="none" stroke="#376AB0" stroke-width="2" stroke-miterlimit="10" cx="711.717" cy="272.186" r="7.349"/>
	<path fill="none" stroke="#376AB0" stroke-width="2" stroke-miterlimit="10" d="M730.797,284.896
		c2.475,3.215,1.881,7.832-1.334,10.311c-3.214,2.477-7.832,1.879-10.309-1.336c-2.48-3.214-1.882-7.83,1.332-10.307
		C723.701,281.084,728.316,281.682,730.797,284.896z"/>
	<path fill="none" stroke="#376AB0" stroke-width="2" stroke-miterlimit="10" d="M744.054,302.096
		c2.48,3.217,1.882,7.832-1.331,10.309c-3.215,2.479-7.83,1.883-10.312-1.332c-2.475-3.216-1.879-7.831,1.336-10.31
		C736.96,298.284,741.577,298.88,744.054,302.096z"/>
	<circle fill="none" stroke="#376AB0" stroke-width="2" stroke-miterlimit="10" cx="751.495" cy="323.783" r="7.351"/>
	<path fill="none" stroke="#376AB0" stroke-width="2" stroke-miterlimit="10" d="M770.573,336.494
		c2.479,3.215,1.883,7.83-1.332,10.311c-3.214,2.479-7.833,1.879-10.312-1.336c-2.477-3.215-1.879-7.83,1.334-10.309
		C763.479,332.684,768.095,333.279,770.573,336.494z"/>
	<path fill="none" stroke="#376AB0" stroke-width="2" stroke-miterlimit="10" d="M783.832,353.693
		c2.48,3.215,1.885,7.83-1.332,10.311c-3.216,2.479-7.831,1.879-10.31-1.334c-2.479-3.217-1.881-7.832,1.332-10.311
		C776.74,349.881,781.355,350.479,783.832,353.693z"/>
	<path fill="none" stroke="#376AB0" stroke-width="2" stroke-miterlimit="10" d="M797.093,370.893
		c2.48,3.215,1.881,7.83-1.336,10.311c-3.212,2.479-7.827,1.881-10.306-1.334c-2.479-3.217-1.882-7.832,1.332-10.309
		C789.999,367.08,794.614,367.678,797.093,370.893z"/>
	<path fill="none" stroke="#376AB0" stroke-width="2" stroke-miterlimit="10" d="M652.036,323.861
		c2.478,3.213,1.881,7.828-1.333,10.307c-3.215,2.48-7.832,1.883-10.311-1.336c-2.477-3.213-1.881-7.826,1.336-10.305
		C644.941,320.051,649.557,320.646,652.036,323.861z"/>
	<path fill="none" stroke="#376AB0" stroke-width="2" stroke-miterlimit="10" d="M590.583,365.816
		c3.214-2.48,7.829-1.883,10.31,1.332c2.479,3.217,1.88,7.832-1.336,10.311c-3.215,2.477-7.829,1.879-10.307-1.334
		C586.773,372.91,587.369,368.295,590.583,365.816z"/>
	<path fill="none" stroke="#376AB0" stroke-width="2" stroke-miterlimit="10" d="M607.783,352.555
		c3.215-2.479,7.831-1.879,10.309,1.336c2.478,3.213,1.881,7.832-1.334,10.311c-3.215,2.477-7.83,1.879-10.309-1.336
		S604.568,355.035,607.783,352.555z"/>
	<path fill="none" stroke="#376AB0" stroke-width="2" stroke-miterlimit="10" d="M624.982,339.299
		c3.213-2.479,7.828-1.883,10.309,1.33c2.479,3.217,1.878,7.832-1.334,10.312c-3.215,2.475-7.83,1.879-10.311-1.336
		C621.17,346.391,621.767,341.773,624.982,339.299z"/>
	<circle fill="none" stroke="#376AB0" stroke-width="2" stroke-miterlimit="10" cx="677.611" cy="293.754" r="26.645"/>
	<circle fill="none" stroke="#376AB0" stroke-width="2" stroke-miterlimit="10" cx="782.354" cy="277.217" r="26.645"/>
	<circle fill="none" stroke="#376AB0" stroke-width="2" stroke-miterlimit="10" cx="677.549" cy="39.212" r="7.35"/>
	<circle fill="none" stroke="#376AB0" stroke-width="2" stroke-miterlimit="10" cx="660.349" cy="52.472" r="7.349"/>
	<circle fill="none" stroke="#376AB0" stroke-width="2" stroke-miterlimit="10" cx="643.15" cy="65.731" r="7.35"/>
	<circle fill="none" stroke="#376AB0" stroke-width="2" stroke-miterlimit="10" cx="625.95" cy="78.991" r="7.35"/>
	<path fill="none" stroke="#376AB0" stroke-width="2" stroke-miterlimit="10" d="M613.239,98.072
		c-3.216,2.478-7.833,1.88-10.308-1.335c-2.481-3.214-1.883-7.83,1.33-10.307c3.217-2.478,7.832-1.882,10.311,1.333
		C617.051,90.977,616.455,95.594,613.239,98.072z"/>
	<path fill="none" stroke="#376AB0" stroke-width="2" stroke-miterlimit="10" d="M596.041,111.33
		c-3.216,2.479-7.832,1.883-10.309-1.333c-2.479-3.214-1.883-7.832,1.33-10.31c3.217-2.479,7.832-1.881,10.312,1.333
		C599.853,104.237,599.255,108.852,596.041,111.33z"/>
	<path fill="none" stroke="#376AB0" stroke-width="2" stroke-miterlimit="10" d="M578.843,124.59
		c-3.218,2.477-7.832,1.882-10.31-1.333c-2.479-3.214-1.885-7.832,1.332-10.31c3.216-2.479,7.831-1.881,10.309,1.333
		C582.652,117.495,582.055,122.111,578.843,124.59z"/>
	<circle fill="none" stroke="#376AB0" stroke-width="2" stroke-miterlimit="10" cx="557.154" cy="132.028" r="7.35"/>
	<circle fill="none" stroke="#376AB0" stroke-width="2" stroke-miterlimit="10" cx="539.955" cy="145.287" r="7.35"/>
	<path fill="none" stroke="#376AB0" stroke-width="2" stroke-miterlimit="10" d="M736.406,343.754
		c-3.214,2.479-7.829,1.881-10.306-1.334c-2.48-3.215-1.882-7.83,1.331-10.311c3.213-2.475,7.83-1.879,10.311,1.336
		C740.219,336.66,739.621,341.275,736.406,343.754z"/>
	<path fill="none" stroke="#376AB0" stroke-width="2" stroke-miterlimit="10" d="M719.207,357.012
		c-3.213,2.479-7.83,1.881-10.307-1.334c-2.479-3.213-1.88-7.83,1.334-10.307c3.215-2.48,7.827-1.883,10.309,1.334
		C723.02,349.916,722.425,354.533,719.207,357.012z"/>
	<path fill="none" stroke="#376AB0" stroke-width="2" stroke-miterlimit="10" d="M799.863,316.205
		c2.477,3.215,1.883,7.832-1.335,10.311c-3.214,2.477-7.83,1.879-10.309-1.334c-2.479-3.215-1.88-7.832,1.332-10.311
		C792.77,312.395,797.385,312.991,799.863,316.205z"/>
	<path fill="none" stroke="#376AB0" stroke-width="2" stroke-miterlimit="10" d="M703.771,329.959
		c2.478,3.213,1.881,7.828-1.334,10.307c-3.214,2.479-7.831,1.883-10.31-1.334c-2.478-3.213-1.878-7.828,1.336-10.305
		C696.676,326.146,701.295,326.742,703.771,329.959z"/>
</g>
</svg>
